<svg xmlns="http://www.w3.org/2000/svg" xmlns:xlink="http://www.w3.org/1999/xlink" width="195.754" height="50.891" viewBox="0 0 195.754 50.891">
  <defs>
    <linearGradient id="linear-gradient" x1="1.658" y1="-0.24" x2="-0.867" y2="0.914" gradientUnits="objectBoundingBox">
      <stop offset="0" stop-color="#b1583e" stop-opacity="0.737"/>
      <stop offset="0.469" stop-color="#f7931a"/>
      <stop offset="1" stop-color="#deb21f"/>
    </linearGradient>
  </defs>
  <g id="logo_ct_black_full_Zeichenfläche_1" data-name="logo_ct_black_full_Zeichenfläche 1" transform="translate(-1.422 -1.248)">
    <path id="Pfad_18" data-name="Pfad 18" d="M36.871,19.766c0,10.9-6.621,16.667-14.695,16.667-8.357,0-14.227-6.476-14.227-16.056,0-10.048,6.245-16.62,14.695-16.62C31.284,3.758,36.871,10.378,36.871,19.766Zm-24.554.518c0,6.761,3.66,12.816,10.094,12.816,6.478,0,10.14-5.96,10.14-13.145,0-6.292-3.286-12.864-10.094-12.864-6.761,0-10.14,6.243-10.14,13.193Z" transform="translate(19.023 7.317)" fill="url(#linear-gradient)"/>
    <path id="Pfad_19" data-name="Pfad 19" d="M20.781,3.89V35.534H16.7V3.89Z" transform="translate(44.518 7.701)" fill="url(#linear-gradient)"/>
    <path id="Pfad_20" data-name="Pfad 20" d="M19.565,35.534V3.89h4.459L34.166,19.9a89.829,89.829,0,0,1,5.681,10.281l.094-.046c-.377-4.224-.47-8.074-.47-13.005V3.89h3.85V35.534H39.189L29.143,19.478A100.375,100.375,0,0,1,23.227,8.913l-.141.048c.235,3.989.329,7.793.329,13.051V35.534Z" transform="translate(52.878 7.701)" fill="url(#linear-gradient)"/>
    <path id="Pfad_21" data-name="Pfad 21" d="M30,4.537a42.54,42.54,0,0,1,7.841-.658A12.931,12.931,0,0,1,47,6.462a7.876,7.876,0,0,1,2.489,6.009,8.308,8.308,0,0,1-5.96,8.076v.141a7.887,7.887,0,0,1,4.645,6.384,50.5,50.5,0,0,0,2.443,8.685H46.389A40.784,40.784,0,0,1,44.275,28.2c-.941-4.366-2.63-6.009-6.338-6.151h-3.85V35.759H30Zm4.083,14.414h4.178c4.366,0,7.137-2.4,7.137-6.009,0-4.085-2.959-5.87-7.279-5.916a16.835,16.835,0,0,0-4.037.375Z" transform="translate(83.304 7.476)" fill="url(#linear-gradient)"/>
    <path id="Pfad_22" data-name="Pfad 22" d="M43.42,25.583l-3.288,9.951H35.908L46.657,3.89h4.931l10.8,31.643H58.023l-3.383-9.951Zm10.375-3.2-3.1-9.108c-.707-2.064-1.174-3.943-1.644-5.774h-.1c-.47,1.879-.986,3.8-1.594,5.728l-3.1,9.154Z" transform="translate(100.51 7.701)" fill="url(#linear-gradient)"/>
    <path id="Pfad_23" data-name="Pfad 23" d="M62.8,35.534l-4.037-7C57.122,25.862,56.09,24.126,55.1,22.3h-.1c-.891,1.831-1.781,3.521-3.425,6.292l-3.8,6.946H43.084l9.672-16.01L43.459,3.89H48.2l4.178,7.418c1.174,2.064,2.064,3.662,2.909,5.352h.141c.891-1.879,1.69-3.333,2.863-5.352l4.32-7.418H67.31l-9.622,15.4,9.859,16.245Z" transform="translate(121.427 7.701)" fill="url(#linear-gradient)"/>
    <path id="Pfad_24" data-name="Pfad 24" d="M83.9,5.163H15.751L10.065,1.248H78.219Z" transform="translate(28.572 0)" fill="url(#linear-gradient)"/>
    <path id="Pfad_25" data-name="Pfad 25" d="M124.293,1.248H30.5L26.429,5.163h93.785Z" transform="translate(72.883 0)" fill="url(#linear-gradient)"/>
    <path id="Pfad_26" data-name="Pfad 26" d="M7.429,13.248a2.771,2.771,0,0,1,.564,3.062,3.657,3.657,0,0,1,.507.852H93.549V13.248Z" transform="translate(17.505 34.976)" fill="url(#linear-gradient)"/>
    <rect id="Rechteck_1" data-name="Rechteck 1" width="37.971" height="3.915" transform="translate(103.225 43.135) rotate(-90)" fill="url(#linear-gradient)"/>
    <path id="Pfad_27" data-name="Pfad 27" d="M120.962,17.163H30.927l-3.915-3.915h90.035Z" transform="translate(74.583 34.975)" fill="url(#linear-gradient)"/>
    <path id="Pfad_28" data-name="Pfad 28" d="M8.049,28.609a21.326,21.326,0,0,1,8.911-17.218,33.428,33.428,0,0,1,18.16-6.222,3.921,3.921,0,0,1-3.763-3.906A39.068,39.068,0,0,0,10.871,7.919,23.6,23.6,0,0,0,1.447,27.214,22.246,22.246,0,0,0,10.08,45.867a33.047,33.047,0,0,0,17.3,6.23l5.385-3.915a34.57,34.57,0,0,1-15.049-3.915A20.7,20.7,0,0,1,8.049,28.609Z" transform="translate(0 0.043)" fill="url(#linear-gradient)"/>
    <path id="Pfad_29" data-name="Pfad 29" d="M15.645,1.248H10.306L7.494,3.2a3.284,3.284,0,0,1-.087,1.96H21.2Z" transform="translate(17.441 0.001)" fill="url(#linear-gradient)"/>
    <path id="Pfad_30" data-name="Pfad 30" d="M38.064,48.391c-.216.041-.412.114-.642.139A42.153,42.153,0,0,1,32.78,48.4c-1.384,0-2.756.2-4.137.262A14.012,14.012,0,0,1,24,48.418a6,6,0,0,1-.852-.391c-.525-.1-1.055-.172-1.581-.267a9.973,9.973,0,0,1-2.34-.8,20.663,20.663,0,0,1-2.683-1.412,12.43,12.43,0,0,1-1.391-1.079,3.875,3.875,0,0,1-2.708-.405A12.218,12.218,0,0,1,7.126,37.6a21.981,21.981,0,0,1-.992-6.844,25.24,25.24,0,0,1,.729-8.036,29.252,29.252,0,0,1,3.552-7.37,4.059,4.059,0,0,1,2.219-1.694,14.759,14.759,0,0,1,4.058-4.581A18.362,18.362,0,0,1,27.31,5.411a3.455,3.455,0,0,1,2.924-1.818,4.541,4.541,0,0,1,1.748-1.731A25.335,25.335,0,0,0,1.564,21.79,3.98,3.98,0,0,1,3.67,24.114a3.98,3.98,0,0,1-.23,3.128,2.942,2.942,0,0,1,.317,1.416v.069A3.9,3.9,0,0,1,3.222,30.7L2.7,31.38a3.981,3.981,0,0,1,.972,2.451,7.4,7.4,0,0,0,.346,1.133c.492,1.056,1.022,2.091,1.443,3.184.458,1.188.84,2.4,1.331,3.579a3.967,3.967,0,0,1,.264,1.291,3.641,3.641,0,0,1,.523-.106,3.7,3.7,0,0,1,3.738,4.18,25.284,25.284,0,0,0,27.645,1.747,3.841,3.841,0,0,1-.9-.447Z" transform="translate(0.412 0.001)" fill="url(#linear-gradient)"/>
  </g>
</svg>
