<svg xmlns="http://www.w3.org/2000/svg" xmlns:xlink="http://www.w3.org/1999/xlink" width="193.266" height="121.095" viewBox="0 0 193.266 121.095">
  <defs>
    <linearGradient id="linear-gradient" x1="0.5" x2="0.5" y2="1" gradientUnits="objectBoundingBox">
      <stop offset="0" stop-opacity="0"/>
      <stop offset="0" stop-color="#b1583e"/>
      <stop offset="0.512" stop-color="#f7931a"/>
      <stop offset="1" stop-color="#deb21f"/>
    </linearGradient>
  </defs>
  <g id="logo_cointrax_outlined" transform="translate(-1.264 133.77)">
    <path id="Pfad_31" data-name="Pfad 31" d="M313.73,530" transform="translate(-257.375 -542.675)" stroke="#f7931a" stroke-miterlimit="10" stroke-width="0.5" fill="url(#linear-gradient)"/>
    <path id="Pfad_38" data-name="Pfad 38" d="M348.709,9.544l.2,61.749H340.09V9.753h-.333l-3.315-.088-51.428.088L279.87,3.23H413.131l-3.607,6.336-55.31.16-5.505.027" transform="translate(-219.032 -111.098)" stroke="#f7931a" stroke-miterlimit="10" stroke-width="0.5" fill="url(#linear-gradient)"/>
    <path id="Pfad_39" data-name="Pfad 39" d="M313.73,429.27" transform="translate(-257.375 -460.989)" stroke="#f7931a" stroke-miterlimit="10" stroke-width="0.5" fill="url(#linear-gradient)"/>
    <path id="Pfad_40" data-name="Pfad 40" d="M194.032,101.754c-63.6-.257-109.625-.437-115.554-.426a77.7,77.7,0,0,1-8.175-.4,74.962,74.962,0,0,1-7.563-1.134A36.977,36.977,0,0,1,41,85.237a32.727,32.727,0,0,1-4.916-15.125,34.407,34.407,0,0,1,11.7-27.94C53.646,37.1,60.1,35.436,65.576,34a35.807,35.807,0,0,1,11.1-1.451l-3.3-3.823L70.3,25.312c-2.7-.1-22.937-.354-36.489,15.684A43.471,43.471,0,0,0,23.641,67.832c-.062,3.689-.134,12.478,5.252,20.967a43.944,43.944,0,0,0,14.777,13.4h0a41.688,41.688,0,0,0,9.8,3.643h0l.089.025a59.777,59.777,0,0,0,10.5,1.866c3.2.3,5.672.314,6.944.319,11.168.053,16.751.083,17.936.053,1.038-.028,21.228.011,61.612.094,8.886.017,17.371.04,24.779.025,1.3,0,7.606-.013,16.137-.019h1.819c44.153.01-22.4.029,21.745.019L208.94,101.8l-29.425-.019" transform="translate(-22.12 -133.55)" stroke="#f7931a" stroke-miterlimit="10" stroke-width="0.5" fill="url(#linear-gradient)"/>
    <path id="Pfad_41" data-name="Pfad 41" d="M679.5,294.5" transform="translate(-553.991 -351.699)" stroke="#f7931a" stroke-miterlimit="10" stroke-width="0.5" fill="url(#linear-gradient)"/>
    <path id="Pfad_42" data-name="Pfad 42" d="M366.5-110.5" transform="translate(-300.168 -23.27)" stroke="#f7931a" stroke-miterlimit="10" stroke-width="0.5" fill="url(#linear-gradient)"/>
    <path id="Pfad_43" data-name="Pfad 43" d="M266.5,467.5" transform="translate(-219.074 -491.991)" stroke="#f7931a" stroke-miterlimit="10" stroke-width="0.5" fill="url(#linear-gradient)"/>
    <path id="Pfad_44" data-name="Pfad 44" d="M222.5,456.5" transform="translate(-183.393 -483.071)" stroke="#f7931a" stroke-miterlimit="10" stroke-width="0.5" fill="url(#linear-gradient)"/>
  </g>
</svg>
