<svg xmlns="http://www.w3.org/2000/svg" xmlns:xlink="http://www.w3.org/1999/xlink" width="198.297" height="78.143" viewBox="0 0 198.297 78.143">
  <defs>
    <linearGradient id="linear-gradient" x1="0.5" x2="0.5" y2="1" gradientUnits="objectBoundingBox">
      <stop offset="0" stop-opacity="0"/>
      <stop offset="0" stop-color="#b1583e"/>
      <stop offset="0.512" stop-color="#f7931a"/>
      <stop offset="1" stop-color="#deb21f"/>
    </linearGradient>
  </defs>
  <g id="logo_cointrax_outlined" transform="translate(-1.012 133.77)">
    <path id="Pfad_31" data-name="Pfad 31" d="M313.73,530" transform="translate(-276.829 -585.627)" stroke="#f7931a" stroke-miterlimit="10" stroke-width="1" fill="url(#linear-gradient)"/>
    <path id="Pfad_32" data-name="Pfad 32" d="M262.957,127.236c0,11.4-6.652,17.446-14.762,17.446-8.4,0-14.3-6.783-14.3-16.812,0-10.519,6.275-17.4,14.762-17.4C257.344,110.474,262.957,117.4,262.957,127.236Zm-24.675.54c0,7.076,3.68,13.42,10.145,13.42,6.51,0,10.191-6.243,10.191-13.763,0-6.588-3.3-13.469-10.145-13.469C241.679,113.963,238.282,120.5,238.282,127.776Z" transform="translate(-206.738 -217.281)" stroke="#f7931a" stroke-miterlimit="10" stroke-width="1" fill="url(#linear-gradient)"/>
    <path id="Pfad_33" data-name="Pfad 33" d="M519.874,114.93v33.131h-4.1V114.93Z" transform="translate(-454.22 -221.197)" stroke="#f7931a" stroke-miterlimit="10" stroke-width="1" fill="url(#linear-gradient)"/>
    <path id="Pfad_34" data-name="Pfad 34" d="M608.19,148.061V114.93h4.482l10.191,16.762a94.758,94.758,0,0,1,5.708,10.766l.1-.05c-.378-4.424-.472-8.455-.472-13.616V114.93h3.869v33.131h-4.148l-10.1-16.812a106.459,106.459,0,0,1-5.944-11.06l-.141.049c.235,4.179.329,8.16.329,13.664v14.152Z" transform="translate(-535.364 -221.197)" stroke="#f7931a" stroke-miterlimit="10" stroke-width="1" fill="url(#linear-gradient)"/>
    <path id="Pfad_35" data-name="Pfad 35" d="M944.63,113.6a41.12,41.12,0,0,1,7.879-.688c4.392,0,7.219.836,9.2,2.7a8.422,8.422,0,0,1,2.5,6.292,8.657,8.657,0,0,1-5.992,8.455v.148c2.453.886,3.916,3.245,4.672,6.686,1.037,4.62,1.792,7.815,2.453,9.094H961.1c-.518-.935-1.22-3.782-2.123-7.914-.944-4.571-2.643-6.292-6.37-6.439h-3.869v14.354h-4.1Zm4.1,15.092h4.2c4.392,0,7.171-2.507,7.171-6.293,0-4.27-2.972-6.144-7.313-6.193a16.253,16.253,0,0,0-4.058.393Z" transform="translate(-830.757 -219.423)" stroke="#f7931a" stroke-miterlimit="10" stroke-width="1" fill="url(#linear-gradient)"/>
    <path id="Pfad_36" data-name="Pfad 36" d="M1142.429,137.64l-3.3,10.421h-4.247l10.8-33.131h4.955l10.852,33.131H1157.1l-3.4-10.421Zm10.427-3.343-3.114-9.536c-.708-2.163-1.18-4.13-1.652-6.046H1148c-.472,1.967-.991,3.982-1.6,6l-3.114,9.585Z" transform="translate(-997.796 -221.197)" stroke="#f7931a" stroke-miterlimit="10" stroke-width="1" fill="url(#linear-gradient)"/>
    <path id="Pfad_37" data-name="Pfad 37" d="M1385.956,148.061l-4.058-7.32c-1.651-2.806-2.684-4.62-3.68-6.537h-.094c-.9,1.917-1.793,3.686-3.444,6.588l-3.822,7.275h-4.718l9.719-16.768-9.342-16.369h4.766l4.2,7.767c1.18,2.162,2.074,3.833,2.928,5.6h.141c.9-1.967,1.7-3.49,2.878-5.6l4.336-7.767h4.719l-9.672,16.123,9.908,17.008Z" transform="translate(-1200.842 -221.197)" stroke="#f7931a" stroke-miterlimit="10" stroke-width="1" fill="url(#linear-gradient)"/>
    <path id="Pfad_38" data-name="Pfad 38" d="M352.158,7.439V47.151h-3.9V7.439h-.378l-3.765-.057-58.4.057L279.87,3.23H442.5l-4.1,4.088-86.662.121" transform="translate(-244.401 -120.286)" stroke="#f7931a" stroke-miterlimit="10" stroke-width="1" fill="url(#linear-gradient)"/>
    <path id="Pfad_39" data-name="Pfad 39" d="M313.73,429.27" transform="translate(-276.829 -497.187)" stroke="#f7931a" stroke-miterlimit="10" stroke-width="1" fill="url(#linear-gradient)"/>
    <path id="Pfad_40" data-name="Pfad 40" d="M133.72,74.607c-41.044-.166-70.871-.3-74.7-.292a50.136,50.136,0,0,1-5.275-.257,48.371,48.371,0,0,1-4.88-.732,23.861,23.861,0,0,1-14.03-9.394,21.119,21.119,0,0,1-3.172-9.76,22.2,22.2,0,0,1,7.552-18.03C43,32.868,47.162,31.795,50.7,30.869a25.143,25.143,0,0,1,7.478-.963l-6.162-4.581A27.682,27.682,0,0,0,30.2,35.383,28.052,28.052,0,0,0,23.637,52.7a23.889,23.889,0,0,0,3.389,13.53,28.357,28.357,0,0,0,9.536,8.649h0a26.9,26.9,0,0,0,6.326,2.351h0l.057.016a38.574,38.574,0,0,0,6.775,1.2c2.067.192,3.66.2,4.481.206,7.207.034,10.809.054,11.574.034.67-.018,13.7.007,39.758.061,5.734.011,11.21.026,15.99.016.839,0,4.908-.009,10.413-.012h1.174q42.738.01,85.473,0l-3.932-4.148H124.222" transform="translate(-22.12 -142.556)" stroke="#f7931a" stroke-miterlimit="10" stroke-width="1" fill="url(#linear-gradient)"/>
    <path id="Pfad_41" data-name="Pfad 41" d="M679.5,294.5" transform="translate(-597.974 -378.859)" stroke="#f7931a" stroke-miterlimit="10" stroke-width="1" fill="url(#linear-gradient)"/>
    <path id="Pfad_42" data-name="Pfad 42" d="M366.5-110.5" transform="translate(-323.161 -23.27)" stroke="#f7931a" stroke-miterlimit="10" stroke-width="1" fill="url(#linear-gradient)"/>
    <path id="Pfad_43" data-name="Pfad 43" d="M266.5,467.5" transform="translate(-235.361 -530.752)" stroke="#f7931a" stroke-miterlimit="10" stroke-width="1" fill="url(#linear-gradient)"/>
    <path id="Pfad_44" data-name="Pfad 44" d="M222.5,456.5" transform="translate(-196.729 -521.094)" stroke="#f7931a" stroke-miterlimit="10" stroke-width="1" fill="url(#linear-gradient)"/>
  </g>
</svg>
